<mxfile host="app.diagrams.net" agent="Mozilla/5.0 (Windows NT 10.0; Win64; x64) AppleWebKit/537.36 (KHTML, like Gecko) Chrome/140.0.0.0 Safari/537.36" version="28.2.0">
  <diagram name="PÃ¡gina-1" id="D95ImYnYcOlQvdiJFThv">
    <mxGraphModel dx="2174" dy="743" grid="1" gridSize="10" guides="1" tooltips="1" connect="1" arrows="1" fold="1" page="1" pageScale="1" pageWidth="827" pageHeight="1169" math="0" shadow="0">
      <root>
        <mxCell id="0" />
        <mxCell id="1" parent="0" />
        <mxCell id="_k9lQ6VEFA6_oXPFHm7H-1" value="" style="html=1;dropTarget=0;whiteSpace=wrap;" vertex="1" parent="1">
          <mxGeometry x="-30" y="100" width="280" height="100" as="geometry" />
        </mxCell>
        <mxCell id="_k9lQ6VEFA6_oXPFHm7H-2" value="App" style="shape=module;jettyWidth=8;jettyHeight=4;" vertex="1" parent="_k9lQ6VEFA6_oXPFHm7H-1">
          <mxGeometry x="1" width="41" height="20" relative="1" as="geometry">
            <mxPoint x="-48" y="7" as="offset" />
          </mxGeometry>
        </mxCell>
        <mxCell id="_k9lQ6VEFA6_oXPFHm7H-3" value="" style="html=1;dropTarget=0;whiteSpace=wrap;" vertex="1" parent="1">
          <mxGeometry x="-30" y="310" width="280" height="100" as="geometry" />
        </mxCell>
        <mxCell id="_k9lQ6VEFA6_oXPFHm7H-4" value="WebView" style="shape=module;jettyWidth=8;jettyHeight=4;" vertex="1" parent="_k9lQ6VEFA6_oXPFHm7H-3">
          <mxGeometry x="1" width="71" height="20" relative="1" as="geometry">
            <mxPoint x="-78" y="7" as="offset" />
          </mxGeometry>
        </mxCell>
        <mxCell id="_k9lQ6VEFA6_oXPFHm7H-92" value="" style="edgeStyle=orthogonalEdgeStyle;rounded=0;orthogonalLoop=1;jettySize=auto;html=1;endArrow=none;endFill=0;" edge="1" parent="1" source="_k9lQ6VEFA6_oXPFHm7H-5" target="_k9lQ6VEFA6_oXPFHm7H-90">
          <mxGeometry relative="1" as="geometry" />
        </mxCell>
        <mxCell id="_k9lQ6VEFA6_oXPFHm7H-94" value="Solicitar" style="edgeLabel;html=1;align=center;verticalAlign=middle;resizable=0;points=[];" vertex="1" connectable="0" parent="_k9lQ6VEFA6_oXPFHm7H-92">
          <mxGeometry x="-0.1714" y="3" relative="1" as="geometry">
            <mxPoint x="1" y="-12" as="offset" />
          </mxGeometry>
        </mxCell>
        <mxCell id="_k9lQ6VEFA6_oXPFHm7H-145" value="" style="edgeStyle=orthogonalEdgeStyle;rounded=0;orthogonalLoop=1;jettySize=auto;html=1;endArrow=none;endFill=0;startArrow=halfCircle;startFill=0;" edge="1" parent="1" source="_k9lQ6VEFA6_oXPFHm7H-5" target="_k9lQ6VEFA6_oXPFHm7H-142">
          <mxGeometry relative="1" as="geometry" />
        </mxCell>
        <mxCell id="_k9lQ6VEFA6_oXPFHm7H-5" value="" style="html=1;dropTarget=0;whiteSpace=wrap;" vertex="1" parent="1">
          <mxGeometry x="470" y="157.5" width="180" height="190" as="geometry" />
        </mxCell>
        <mxCell id="_k9lQ6VEFA6_oXPFHm7H-6" value="WebService" style="shape=module;jettyWidth=8;jettyHeight=4;" vertex="1" parent="_k9lQ6VEFA6_oXPFHm7H-5">
          <mxGeometry x="1" width="81" height="20" relative="1" as="geometry">
            <mxPoint x="-88" y="7" as="offset" />
          </mxGeometry>
        </mxCell>
        <mxCell id="_k9lQ6VEFA6_oXPFHm7H-7" value="" style="html=1;dropTarget=0;whiteSpace=wrap;" vertex="1" parent="1">
          <mxGeometry x="410" y="450" width="310" height="280" as="geometry" />
        </mxCell>
        <mxCell id="_k9lQ6VEFA6_oXPFHm7H-8" value="BDD" style="shape=module;jettyWidth=8;jettyHeight=4;" vertex="1" parent="_k9lQ6VEFA6_oXPFHm7H-7">
          <mxGeometry x="1" width="52" height="30" relative="1" as="geometry">
            <mxPoint x="-59" y="7" as="offset" />
          </mxGeometry>
        </mxCell>
        <mxCell id="_k9lQ6VEFA6_oXPFHm7H-33" value="" style="rounded=0;orthogonalLoop=1;jettySize=auto;html=1;endArrow=halfCircle;endFill=0;endSize=6;strokeWidth=1;sketch=0;exitX=0.5;exitY=1;exitDx=0;exitDy=0;" edge="1" parent="1" source="_k9lQ6VEFA6_oXPFHm7H-5">
          <mxGeometry x="560" y="440" width="10" height="10" as="geometry">
            <mxPoint x="560" y="380" as="targetPoint" />
          </mxGeometry>
        </mxCell>
        <mxCell id="_k9lQ6VEFA6_oXPFHm7H-38" value="Solicita" style="edgeLabel;html=1;align=center;verticalAlign=middle;resizable=0;points=[];" vertex="1" connectable="0" parent="_k9lQ6VEFA6_oXPFHm7H-33">
          <mxGeometry relative="1" as="geometry">
            <mxPoint x="30" y="5" as="offset" />
          </mxGeometry>
        </mxCell>
        <mxCell id="_k9lQ6VEFA6_oXPFHm7H-34" value="" style="rounded=0;orthogonalLoop=1;jettySize=auto;html=1;endArrow=oval;endFill=0;sketch=0;sourcePerimeterSpacing=0;targetPerimeterSpacing=0;endSize=10;" edge="1" target="_k9lQ6VEFA6_oXPFHm7H-35" parent="1" source="_k9lQ6VEFA6_oXPFHm7H-7">
          <mxGeometry relative="1" as="geometry">
            <mxPoint x="530" y="425" as="sourcePoint" />
          </mxGeometry>
        </mxCell>
        <mxCell id="_k9lQ6VEFA6_oXPFHm7H-35" value="" style="ellipse;whiteSpace=wrap;html=1;align=center;aspect=fixed;fillColor=none;strokeColor=none;resizable=0;perimeter=centerPerimeter;rotatable=0;allowArrows=0;points=[];outlineConnect=1;perimeterSpacing=10;" vertex="1" parent="1">
          <mxGeometry x="555" y="400" width="10" height="10" as="geometry" />
        </mxCell>
        <mxCell id="_k9lQ6VEFA6_oXPFHm7H-36" value="" style="endArrow=open;endSize=12;dashed=1;html=1;rounded=0;entryX=0.538;entryY=0.462;entryDx=0;entryDy=0;entryPerimeter=0;" edge="1" parent="1" target="_k9lQ6VEFA6_oXPFHm7H-35">
          <mxGeometry width="160" relative="1" as="geometry">
            <mxPoint x="560" y="370" as="sourcePoint" />
            <mxPoint x="550" y="400" as="targetPoint" />
          </mxGeometry>
        </mxCell>
        <mxCell id="_k9lQ6VEFA6_oXPFHm7H-39" value="Datos" style="text;html=1;align=center;verticalAlign=middle;resizable=0;points=[];autosize=1;strokeColor=none;fillColor=none;" vertex="1" parent="1">
          <mxGeometry x="505" y="390" width="50" height="30" as="geometry" />
        </mxCell>
        <mxCell id="_k9lQ6VEFA6_oXPFHm7H-40" value="" style="rounded=0;orthogonalLoop=1;jettySize=auto;html=1;endArrow=halfCircle;endFill=0;endSize=6;strokeWidth=1;sketch=0;" edge="1" parent="1">
          <mxGeometry x="435" y="230" width="10" height="10" as="geometry">
            <mxPoint x="370" y="240" as="sourcePoint" />
            <mxPoint x="370" y="240" as="targetPoint" />
          </mxGeometry>
        </mxCell>
        <mxCell id="_k9lQ6VEFA6_oXPFHm7H-43" value="Api restful" style="text;html=1;align=center;verticalAlign=middle;resizable=0;points=[];autosize=1;strokeColor=none;fillColor=none;" vertex="1" parent="1">
          <mxGeometry x="390" y="210" width="80" height="30" as="geometry" />
        </mxCell>
        <mxCell id="_k9lQ6VEFA6_oXPFHm7H-84" value="" style="html=1;dropTarget=0;whiteSpace=wrap;" vertex="1" parent="1">
          <mxGeometry x="810" y="245" width="270" height="320" as="geometry" />
        </mxCell>
        <mxCell id="_k9lQ6VEFA6_oXPFHm7H-85" value="" style="shape=module;jettyWidth=8;jettyHeight=4;" vertex="1" parent="_k9lQ6VEFA6_oXPFHm7H-84">
          <mxGeometry x="1" width="20" height="20" relative="1" as="geometry">
            <mxPoint x="-27" y="7" as="offset" />
          </mxGeometry>
        </mxCell>
        <mxCell id="_k9lQ6VEFA6_oXPFHm7H-87" value="Sistema Existente" style="text;html=1;align=center;verticalAlign=middle;resizable=0;points=[];autosize=1;strokeColor=none;fillColor=none;" vertex="1" parent="1">
          <mxGeometry x="885" y="250" width="120" height="30" as="geometry" />
        </mxCell>
        <mxCell id="_k9lQ6VEFA6_oXPFHm7H-88" value="BDD" style="shape=module;align=left;spacingLeft=20;align=center;verticalAlign=top;whiteSpace=wrap;html=1;" vertex="1" parent="1">
          <mxGeometry x="830" y="290" width="100" height="50" as="geometry" />
        </mxCell>
        <mxCell id="_k9lQ6VEFA6_oXPFHm7H-90" value="" style="shape=providedRequiredInterface;html=1;verticalLabelPosition=bottom;sketch=0;direction=west;" vertex="1" parent="1">
          <mxGeometry x="720" y="295" width="20" height="20" as="geometry" />
        </mxCell>
        <mxCell id="_k9lQ6VEFA6_oXPFHm7H-93" style="edgeStyle=orthogonalEdgeStyle;rounded=0;orthogonalLoop=1;jettySize=auto;html=1;entryX=0;entryY=0;entryDx=0;entryDy=15;entryPerimeter=0;" edge="1" parent="1" source="_k9lQ6VEFA6_oXPFHm7H-90" target="_k9lQ6VEFA6_oXPFHm7H-88">
          <mxGeometry relative="1" as="geometry" />
        </mxCell>
        <mxCell id="_k9lQ6VEFA6_oXPFHm7H-95" value="Datos" style="edgeLabel;html=1;align=center;verticalAlign=middle;resizable=0;points=[];" vertex="1" connectable="0" parent="_k9lQ6VEFA6_oXPFHm7H-93">
          <mxGeometry x="-0.4222" y="-2" relative="1" as="geometry">
            <mxPoint x="4" y="-17" as="offset" />
          </mxGeometry>
        </mxCell>
        <mxCell id="_k9lQ6VEFA6_oXPFHm7H-98" style="edgeStyle=orthogonalEdgeStyle;rounded=0;orthogonalLoop=1;jettySize=auto;html=1;" edge="1" parent="1" source="_k9lQ6VEFA6_oXPFHm7H-97" target="_k9lQ6VEFA6_oXPFHm7H-88">
          <mxGeometry relative="1" as="geometry" />
        </mxCell>
        <mxCell id="_k9lQ6VEFA6_oXPFHm7H-97" value="Wrapper" style="shape=module;align=left;spacingLeft=20;align=center;verticalAlign=top;whiteSpace=wrap;html=1;" vertex="1" parent="1">
          <mxGeometry x="830" y="380" width="100" height="50" as="geometry" />
        </mxCell>
        <mxCell id="_k9lQ6VEFA6_oXPFHm7H-100" style="edgeStyle=orthogonalEdgeStyle;rounded=0;orthogonalLoop=1;jettySize=auto;html=1;entryX=0.5;entryY=1;entryDx=0;entryDy=0;" edge="1" parent="1" source="_k9lQ6VEFA6_oXPFHm7H-99" target="_k9lQ6VEFA6_oXPFHm7H-97">
          <mxGeometry relative="1" as="geometry" />
        </mxCell>
        <mxCell id="_k9lQ6VEFA6_oXPFHm7H-99" value="Service Web" style="shape=module;align=left;spacingLeft=20;align=center;verticalAlign=top;whiteSpace=wrap;html=1;" vertex="1" parent="1">
          <mxGeometry x="830" y="470" width="100" height="50" as="geometry" />
        </mxCell>
        <mxCell id="_k9lQ6VEFA6_oXPFHm7H-102" style="edgeStyle=orthogonalEdgeStyle;rounded=0;orthogonalLoop=1;jettySize=auto;html=1;entryX=1;entryY=1;entryDx=0;entryDy=0;endArrow=none;endFill=0;" edge="1" parent="1" source="_k9lQ6VEFA6_oXPFHm7H-101" target="_k9lQ6VEFA6_oXPFHm7H-5">
          <mxGeometry relative="1" as="geometry" />
        </mxCell>
        <mxCell id="_k9lQ6VEFA6_oXPFHm7H-104" value="Solicitar" style="edgeLabel;html=1;align=center;verticalAlign=middle;resizable=0;points=[];" vertex="1" connectable="0" parent="_k9lQ6VEFA6_oXPFHm7H-102">
          <mxGeometry x="-0.15" y="2" relative="1" as="geometry">
            <mxPoint x="11" y="-12" as="offset" />
          </mxGeometry>
        </mxCell>
        <mxCell id="_k9lQ6VEFA6_oXPFHm7H-101" value="" style="shape=providedRequiredInterface;html=1;verticalLabelPosition=bottom;sketch=0;direction=west;" vertex="1" parent="1">
          <mxGeometry x="720" y="390" width="20" height="20" as="geometry" />
        </mxCell>
        <mxCell id="_k9lQ6VEFA6_oXPFHm7H-103" style="edgeStyle=orthogonalEdgeStyle;rounded=0;orthogonalLoop=1;jettySize=auto;html=1;entryX=0;entryY=0;entryDx=0;entryDy=15;entryPerimeter=0;" edge="1" parent="1" source="_k9lQ6VEFA6_oXPFHm7H-101" target="_k9lQ6VEFA6_oXPFHm7H-99">
          <mxGeometry relative="1" as="geometry" />
        </mxCell>
        <mxCell id="_k9lQ6VEFA6_oXPFHm7H-105" value="Datos" style="edgeLabel;html=1;align=center;verticalAlign=middle;resizable=0;points=[];" vertex="1" connectable="0" parent="_k9lQ6VEFA6_oXPFHm7H-103">
          <mxGeometry x="-0.6571" y="-1" relative="1" as="geometry">
            <mxPoint y="-11" as="offset" />
          </mxGeometry>
        </mxCell>
        <mxCell id="_k9lQ6VEFA6_oXPFHm7H-106" value="Dispositivo" style="rhombus;whiteSpace=wrap;html=1;fontColor=#000000;fillColor=#ffffc0;strokeColor=#ff0000;" vertex="1" parent="1">
          <mxGeometry x="-180" y="210" width="130" height="80" as="geometry" />
        </mxCell>
        <mxCell id="_k9lQ6VEFA6_oXPFHm7H-107" value="" style="edgeStyle=orthogonalEdgeStyle;html=1;align=left;verticalAlign=bottom;endArrow=open;endSize=8;strokeColor=#ff0000;rounded=0;entryX=0;entryY=0.5;entryDx=0;entryDy=0;exitX=0.5;exitY=0;exitDx=0;exitDy=0;" edge="1" source="_k9lQ6VEFA6_oXPFHm7H-106" parent="1" target="_k9lQ6VEFA6_oXPFHm7H-1">
          <mxGeometry x="-1" relative="1" as="geometry">
            <mxPoint x="50" y="250" as="targetPoint" />
          </mxGeometry>
        </mxCell>
        <mxCell id="_k9lQ6VEFA6_oXPFHm7H-108" value="" style="edgeStyle=orthogonalEdgeStyle;html=1;align=left;verticalAlign=top;endArrow=open;endSize=8;strokeColor=#ff0000;rounded=0;entryX=0;entryY=0.5;entryDx=0;entryDy=0;exitX=0.5;exitY=1;exitDx=0;exitDy=0;" edge="1" source="_k9lQ6VEFA6_oXPFHm7H-106" parent="1" target="_k9lQ6VEFA6_oXPFHm7H-3">
          <mxGeometry x="-0.7714" y="20" relative="1" as="geometry">
            <mxPoint x="-90" y="330" as="targetPoint" />
            <mxPoint as="offset" />
          </mxGeometry>
        </mxCell>
        <mxCell id="_k9lQ6VEFA6_oXPFHm7H-109" value="Log-In" style="shape=module;align=left;spacingLeft=20;align=center;verticalAlign=top;whiteSpace=wrap;html=1;" vertex="1" parent="1">
          <mxGeometry x="-20" y="115" width="100" height="70" as="geometry" />
        </mxCell>
        <mxCell id="_k9lQ6VEFA6_oXPFHm7H-111" value="Log-In" style="shape=module;align=left;spacingLeft=20;align=center;verticalAlign=top;whiteSpace=wrap;html=1;" vertex="1" parent="1">
          <mxGeometry x="-20" y="330" width="100" height="70" as="geometry" />
        </mxCell>
        <mxCell id="_k9lQ6VEFA6_oXPFHm7H-112" value="Crud" style="shape=module;align=left;spacingLeft=20;align=center;verticalAlign=top;whiteSpace=wrap;html=1;" vertex="1" parent="1">
          <mxGeometry x="505" y="200" width="100" height="50" as="geometry" />
        </mxCell>
        <mxCell id="_k9lQ6VEFA6_oXPFHm7H-114" value="" style="ellipse;html=1;shape=startState;fillColor=#60a917;strokeColor=#2D7600;fontColor=#ffffff;" vertex="1" parent="1">
          <mxGeometry x="-240" y="235" width="30" height="30" as="geometry" />
        </mxCell>
        <mxCell id="_k9lQ6VEFA6_oXPFHm7H-115" value="" style="edgeStyle=orthogonalEdgeStyle;html=1;verticalAlign=bottom;endArrow=open;endSize=8;strokeColor=#ff0000;rounded=0;entryX=0;entryY=0.5;entryDx=0;entryDy=0;exitX=1;exitY=0.5;exitDx=0;exitDy=0;" edge="1" source="_k9lQ6VEFA6_oXPFHm7H-114" parent="1" target="_k9lQ6VEFA6_oXPFHm7H-106">
          <mxGeometry relative="1" as="geometry">
            <mxPoint x="-140" y="265" as="targetPoint" />
            <Array as="points">
              <mxPoint x="-200" y="250" />
              <mxPoint x="-200" y="250" />
            </Array>
          </mxGeometry>
        </mxCell>
        <mxCell id="_k9lQ6VEFA6_oXPFHm7H-117" value="&lt;p style=&quot;margin:0px;margin-top:4px;text-align:center;text-decoration:underline;&quot;&gt;&lt;b&gt;Usuario&lt;/b&gt;&lt;/p&gt;&lt;hr size=&quot;1&quot; style=&quot;border-style:solid;&quot;&gt;&lt;p style=&quot;margin:0px;margin-left:8px;&quot;&gt;field1 = value1&lt;br&gt;field2 = value2&lt;br&gt;field3 = value3&lt;/p&gt;" style="verticalAlign=top;align=left;overflow=fill;html=1;whiteSpace=wrap;" vertex="1" parent="1">
          <mxGeometry x="440" y="510" width="90" height="80" as="geometry" />
        </mxCell>
        <mxCell id="_k9lQ6VEFA6_oXPFHm7H-123" value="Producto" style="swimlane;fontStyle=1;align=center;verticalAlign=top;childLayout=stackLayout;horizontal=1;startSize=26;horizontalStack=0;resizeParent=1;resizeParentMax=0;resizeLast=0;collapsible=1;marginBottom=0;whiteSpace=wrap;html=1;" vertex="1" parent="1">
          <mxGeometry x="550" y="510" width="160" height="86" as="geometry">
            <mxRectangle x="550" y="510" width="90" height="30" as="alternateBounds" />
          </mxGeometry>
        </mxCell>
        <mxCell id="_k9lQ6VEFA6_oXPFHm7H-124" value="+ field: type" style="text;strokeColor=none;fillColor=none;align=left;verticalAlign=top;spacingLeft=4;spacingRight=4;overflow=hidden;rotatable=0;points=[[0,0.5],[1,0.5]];portConstraint=eastwest;whiteSpace=wrap;html=1;" vertex="1" parent="_k9lQ6VEFA6_oXPFHm7H-123">
          <mxGeometry y="26" width="160" height="26" as="geometry" />
        </mxCell>
        <mxCell id="_k9lQ6VEFA6_oXPFHm7H-125" value="" style="line;strokeWidth=1;fillColor=none;align=left;verticalAlign=middle;spacingTop=-1;spacingLeft=3;spacingRight=3;rotatable=0;labelPosition=right;points=[];portConstraint=eastwest;strokeColor=inherit;" vertex="1" parent="_k9lQ6VEFA6_oXPFHm7H-123">
          <mxGeometry y="52" width="160" height="8" as="geometry" />
        </mxCell>
        <mxCell id="_k9lQ6VEFA6_oXPFHm7H-126" value="+ method(type): type" style="text;strokeColor=none;fillColor=none;align=left;verticalAlign=top;spacingLeft=4;spacingRight=4;overflow=hidden;rotatable=0;points=[[0,0.5],[1,0.5]];portConstraint=eastwest;whiteSpace=wrap;html=1;" vertex="1" parent="_k9lQ6VEFA6_oXPFHm7H-123">
          <mxGeometry y="60" width="160" height="26" as="geometry" />
        </mxCell>
        <mxCell id="_k9lQ6VEFA6_oXPFHm7H-133" value="Seguridad" style="html=1;dropTarget=0;whiteSpace=wrap;" vertex="1" parent="1">
          <mxGeometry x="160" y="215" width="110" height="75" as="geometry" />
        </mxCell>
        <mxCell id="_k9lQ6VEFA6_oXPFHm7H-134" value="" style="shape=module;jettyWidth=8;jettyHeight=4;" vertex="1" parent="_k9lQ6VEFA6_oXPFHm7H-133">
          <mxGeometry x="1" width="20" height="20" relative="1" as="geometry">
            <mxPoint x="-27" y="7" as="offset" />
          </mxGeometry>
        </mxCell>
        <mxCell id="_k9lQ6VEFA6_oXPFHm7H-142" value="" style="shape=providedRequiredInterface;html=1;verticalLabelPosition=bottom;sketch=0;direction=west;" vertex="1" parent="1">
          <mxGeometry x="380" y="242.5" width="20" height="20" as="geometry" />
        </mxCell>
        <mxCell id="_k9lQ6VEFA6_oXPFHm7H-148" style="edgeStyle=orthogonalEdgeStyle;rounded=0;orthogonalLoop=1;jettySize=auto;html=1;entryX=0;entryY=0.5;entryDx=0;entryDy=0;exitX=0;exitY=0.5;exitDx=0;exitDy=0;exitPerimeter=0;endArrow=none;endFill=0;" edge="1" parent="1" source="_k9lQ6VEFA6_oXPFHm7H-147" target="_k9lQ6VEFA6_oXPFHm7H-133">
          <mxGeometry relative="1" as="geometry" />
        </mxCell>
        <mxCell id="_k9lQ6VEFA6_oXPFHm7H-147" value="" style="shape=umlControl;html=1;verticalLabelPosition=bottom;sketch=0;direction=west;perimeter=ellipsePerimeter;whiteSpace=wrap;" vertex="1" parent="1">
          <mxGeometry x="100" y="242.5" width="20" height="20" as="geometry" />
        </mxCell>
        <mxCell id="_k9lQ6VEFA6_oXPFHm7H-149" style="edgeStyle=orthogonalEdgeStyle;rounded=0;orthogonalLoop=1;jettySize=auto;html=1;entryX=1;entryY=0.5;entryDx=0;entryDy=0;entryPerimeter=0;exitX=0.5;exitY=1;exitDx=0;exitDy=0;endArrow=none;endFill=0;" edge="1" parent="1" source="_k9lQ6VEFA6_oXPFHm7H-109" target="_k9lQ6VEFA6_oXPFHm7H-147">
          <mxGeometry relative="1" as="geometry" />
        </mxCell>
        <mxCell id="_k9lQ6VEFA6_oXPFHm7H-150" style="edgeStyle=orthogonalEdgeStyle;rounded=0;orthogonalLoop=1;jettySize=auto;html=1;entryX=1;entryY=0.5;entryDx=0;entryDy=0;entryPerimeter=0;endArrow=none;endFill=0;" edge="1" parent="1" source="_k9lQ6VEFA6_oXPFHm7H-111" target="_k9lQ6VEFA6_oXPFHm7H-147">
          <mxGeometry relative="1" as="geometry">
            <Array as="points">
              <mxPoint x="30" y="253" />
            </Array>
          </mxGeometry>
        </mxCell>
        <mxCell id="_k9lQ6VEFA6_oXPFHm7H-151" value="Verifica" style="text;html=1;align=center;verticalAlign=middle;resizable=0;points=[];autosize=1;strokeColor=none;fillColor=none;" vertex="1" parent="1">
          <mxGeometry x="80" y="212.5" width="60" height="30" as="geometry" />
        </mxCell>
        <mxCell id="_k9lQ6VEFA6_oXPFHm7H-152" style="edgeStyle=orthogonalEdgeStyle;rounded=0;orthogonalLoop=1;jettySize=auto;html=1;endArrow=halfCircle;endFill=0;" edge="1" parent="1" source="_k9lQ6VEFA6_oXPFHm7H-1">
          <mxGeometry relative="1" as="geometry">
            <mxPoint x="393" y="196" as="targetPoint" />
            <Array as="points">
              <mxPoint x="394" y="150" />
              <mxPoint x="394" y="196" />
            </Array>
          </mxGeometry>
        </mxCell>
        <mxCell id="_k9lQ6VEFA6_oXPFHm7H-153" style="edgeStyle=orthogonalEdgeStyle;rounded=0;orthogonalLoop=1;jettySize=auto;html=1;endArrow=halfCircle;endFill=0;" edge="1" parent="1" source="_k9lQ6VEFA6_oXPFHm7H-3">
          <mxGeometry relative="1" as="geometry">
            <mxPoint x="393" y="320" as="targetPoint" />
            <Array as="points">
              <mxPoint x="393" y="360" />
              <mxPoint x="393" y="320" />
            </Array>
          </mxGeometry>
        </mxCell>
        <mxCell id="_k9lQ6VEFA6_oXPFHm7H-155" value="" style="endArrow=open;dashed=1;endFill=0;endSize=12;html=1;rounded=0;entryX=0.037;entryY=0.93;entryDx=0;entryDy=0;entryPerimeter=0;" edge="1" parent="1" target="_k9lQ6VEFA6_oXPFHm7H-43">
          <mxGeometry width="160" relative="1" as="geometry">
            <mxPoint x="393" y="200" as="sourcePoint" />
            <mxPoint x="560" y="190" as="targetPoint" />
          </mxGeometry>
        </mxCell>
        <mxCell id="_k9lQ6VEFA6_oXPFHm7H-157" value="" style="endArrow=open;dashed=1;endFill=0;endSize=12;html=1;rounded=0;" edge="1" parent="1">
          <mxGeometry width="160" relative="1" as="geometry">
            <mxPoint x="393" y="320" as="sourcePoint" />
            <mxPoint x="393" y="270" as="targetPoint" />
          </mxGeometry>
        </mxCell>
      </root>
    </mxGraphModel>
  </diagram>
</mxfile>
